<svg width="36" height="36" viewBox="0 0 36 36" fill="none" xmlns="http://www.w3.org/2000/svg">
<path d="M14.94 21.06V19.395C14.94 18.75 14.46 18.435 13.875 18.69L6.36003 21.93C5.17503 22.44 4.21503 21.81 4.21503 20.535V18.555C4.21503 17.535 4.98003 16.35 5.92503 15.96L14.475 12.285C14.715 12.165 14.925 11.85 14.925 11.58V6.98997C14.925 5.54997 15.99 3.82497 17.265 3.16497C17.715 2.93997 18.255 2.93997 18.705 3.16497C19.995 3.82497 21.06 5.53497 21.06 6.97497V11.565C21.06 11.835 21.27 12.15 21.51 12.27L23.07 12.93L14.94 21.06Z" fill="#1A143C"/>
<path opacity="0.4" d="M31.785 18.5551V20.5351C31.785 21.8101 30.825 22.4401 29.64 21.9301L22.125 18.6901C21.525 18.4501 21.06 18.7501 21.06 19.3951V23.7601C21.06 24.1051 21.255 24.6001 21.51 24.8401L24.99 28.3351C25.35 28.6951 25.515 29.4151 25.35 29.9101L24.675 31.9501C24.375 32.8351 23.37 33.2401 22.545 32.8351L18.975 29.8351C18.435 29.3701 17.55 29.3701 17.01 29.8351L13.44 32.8351C12.615 33.2551 11.61 32.8351 11.34 31.9501L10.665 29.9101C10.5 29.4001 10.665 28.6951 11.025 28.3351L14.505 24.8401C14.745 24.6001 14.94 24.1051 14.94 23.7601V21.0601L23.07 12.9301L30.075 15.9451C31.02 16.3501 31.785 17.5351 31.785 18.5551Z" fill="#1A143C"/>
</svg>
