<svg width="24" height="25" viewBox="0 0 24 25" fill="none" xmlns="http://www.w3.org/2000/svg">
<path d="M22 21.75H2C1.59 21.75 1.25 22.09 1.25 22.5C1.25 22.91 1.59 23.25 2 23.25H22C22.41 23.25 22.75 22.91 22.75 22.5C22.75 22.09 22.41 21.75 22 21.75Z" fill="#1A143C"/>
<path opacity="0.4" d="M17 2.5H7C4 2.5 3 4.29 3 6.5V22.5H21V6.5C21 4.29 20 2.5 17 2.5Z" fill="#1A143C"/>
<path d="M10 17.75H7C6.59 17.75 6.25 17.41 6.25 17C6.25 16.59 6.59 16.25 7 16.25H10C10.41 16.25 10.75 16.59 10.75 17C10.75 17.41 10.41 17.75 10 17.75Z" fill="#1A143C"/>
<path d="M17 17.75H14C13.59 17.75 13.25 17.41 13.25 17C13.25 16.59 13.59 16.25 14 16.25H17C17.41 16.25 17.75 16.59 17.75 17C17.75 17.41 17.41 17.75 17 17.75Z" fill="#1A143C"/>
<path d="M10 13.25H7C6.59 13.25 6.25 12.91 6.25 12.5C6.25 12.09 6.59 11.75 7 11.75H10C10.41 11.75 10.75 12.09 10.75 12.5C10.75 12.91 10.41 13.25 10 13.25Z" fill="#1A143C"/>
<path d="M17 13.25H14C13.59 13.25 13.25 12.91 13.25 12.5C13.25 12.09 13.59 11.75 14 11.75H17C17.41 11.75 17.75 12.09 17.75 12.5C17.75 12.91 17.41 13.25 17 13.25Z" fill="#1A143C"/>
<path d="M10 8.75H7C6.59 8.75 6.25 8.41 6.25 8C6.25 7.59 6.59 7.25 7 7.25H10C10.41 7.25 10.75 7.59 10.75 8C10.75 8.41 10.41 8.75 10 8.75Z" fill="#1A143C"/>
<path d="M17 8.75H14C13.59 8.75 13.25 8.41 13.25 8C13.25 7.59 13.59 7.25 14 7.25H17C17.41 7.25 17.75 7.59 17.75 8C17.75 8.41 17.41 8.75 17 8.75Z" fill="#1A143C"/>
</svg>
