<svg width="36" height="36" viewBox="0 0 36 36" fill="none" xmlns="http://www.w3.org/2000/svg">
<path opacity="0.6" d="M15.165 6C15.045 6.45 15 6.945 15 7.5V12H7.5V9C7.5 7.35 8.85 6 10.5 6H15.165Z" fill="#1A143C"/>
<path d="M15 28.5V12H7.5C4.5 12 3 13.5 3 16.5V28.5C3 31.5 4.5 33 7.5 33H19.5C16.5 33 15 31.5 15 28.5ZM10.125 25.5C10.125 26.115 9.615 26.625 9 26.625C8.385 26.625 7.875 26.115 7.875 25.5V19.5C7.875 18.885 8.385 18.375 9 18.375C9.615 18.375 10.125 18.885 10.125 19.5V25.5Z" fill="#1A143C"/>
<path opacity="0.4" d="M21 33H19.5C16.5 33 15 31.5 15 28.5V7.5C15 4.5 16.5 3 19.5 3H28.5C31.5 3 33 4.5 33 7.5V28.5C33 31.5 31.5 33 28.5 33H27" fill="#1A143C"/>
<path d="M27 27V33H21V27C21 26.175 21.675 25.5 22.5 25.5H25.5C26.325 25.5 27 26.175 27 27Z" fill="#1A143C"/>
<path d="M21 20.625C20.385 20.625 19.875 20.115 19.875 19.5V12C19.875 11.385 20.385 10.875 21 10.875C21.615 10.875 22.125 11.385 22.125 12V19.5C22.125 20.115 21.615 20.625 21 20.625Z" fill="#1A143C"/>
<path d="M27 20.625C26.385 20.625 25.875 20.115 25.875 19.5V12C25.875 11.385 26.385 10.875 27 10.875C27.615 10.875 28.125 11.385 28.125 12V19.5C28.125 20.115 27.615 20.625 27 20.625Z" fill="#1A143C"/>
</svg>
