<svg width="36" height="36" viewBox="0 0 36 36" fill="none" xmlns="http://www.w3.org/2000/svg">
<path opacity="0.4" d="M3.14996 33V9.04504C3.14996 6.03004 4.65004 4.51501 7.63504 4.51501H16.98C19.965 4.51501 21.45 6.03004 21.45 9.04504V33" fill="#1A143C"/>
<path d="M16.125 13.5H8.69998C8.08498 13.5 7.57498 12.99 7.57498 12.375C7.57498 11.76 8.08498 11.25 8.69998 11.25H16.125C16.74 11.25 17.25 11.76 17.25 12.375C17.25 12.99 16.74 13.5 16.125 13.5Z" fill="#1A143C"/>
<path d="M16.125 19.125H8.69998C8.08498 19.125 7.57498 18.615 7.57498 18C7.57498 17.385 8.08498 16.875 8.69998 16.875H16.125C16.74 16.875 17.25 17.385 17.25 18C17.25 18.615 16.74 19.125 16.125 19.125Z" fill="#1A143C"/>
<path d="M12.375 34.125C11.76 34.125 11.25 33.615 11.25 33V27.375C11.25 26.76 11.76 26.25 12.375 26.25C12.99 26.25 13.5 26.76 13.5 27.375V33C13.5 33.615 12.99 34.125 12.375 34.125Z" fill="#1A143C"/>
<path d="M34.5 31.8749H31.095V27.3749C32.52 26.9099 33.555 25.5749 33.555 23.9999V20.9999C33.555 19.0349 31.95 17.4299 29.985 17.4299C28.02 17.4299 26.415 19.0349 26.415 20.9999V23.9999C26.415 25.5599 27.435 26.8799 28.83 27.3599V31.8749H1.5C0.885 31.8749 0.375 32.3849 0.375 32.9999C0.375 33.6149 0.885 34.1249 1.5 34.1249H29.895C29.925 34.1249 29.94 34.14 29.97 34.14C30 34.14 30.015 34.1249 30.045 34.1249H34.5C35.115 34.1249 35.625 33.6149 35.625 32.9999C35.625 32.3849 35.115 31.8749 34.5 31.8749Z" fill="#1A143C"/>
</svg>
