<svg width="18" height="18" viewBox="0 0 18 18" fill="none" xmlns="http://www.w3.org/2000/svg">
<path opacity="0.4" d="M9 16.5C13.1421 16.5 16.5 13.1421 16.5 9C16.5 4.85786 13.1421 1.5 9 1.5C4.85786 1.5 1.5 4.85786 1.5 9C1.5 13.1421 4.85786 16.5 9 16.5Z" fill="#1A143C"/>
<path d="M11.7825 11.9475C11.685 11.9475 11.5875 11.925 11.4975 11.865L9.17248 10.4775C8.59498 10.1325 8.16748 9.37501 8.16748 8.70751V5.63251C8.16748 5.32501 8.42248 5.07001 8.72998 5.07001C9.03748 5.07001 9.29248 5.32501 9.29248 5.63251V8.70751C9.29248 8.97751 9.51748 9.37501 9.74998 9.51001L12.075 10.8975C12.345 11.055 12.4275 11.4 12.27 11.67C12.1575 11.85 11.97 11.9475 11.7825 11.9475Z" fill="#1A143C"/>
</svg>
