<svg width="36" height="36" viewBox="0 0 36 36" fill="none" xmlns="http://www.w3.org/2000/svg">
<path opacity="0.6" d="M26.685 15.705V18H3V15.705C3 12.225 5.835 9.39001 9.315 9.39001H20.37C23.85 9.39001 26.685 12.225 26.685 15.705Z" fill="#1A143C"/>
<path opacity="0.4" d="M26.685 18V26.685C26.685 30.165 23.85 33 20.37 33H9.315C5.835 33 3 30.165 3 26.685V18H26.685Z" fill="#1A143C"/>
<path d="M8.25 7.68005C7.635 7.68005 7.125 7.17005 7.125 6.55505V3.93005C7.125 3.31505 7.635 2.80505 8.25 2.80505C8.865 2.80505 9.375 3.31505 9.375 3.93005V6.55505C9.375 7.18505 8.865 7.68005 8.25 7.68005Z" fill="#1A143C"/>
<path d="M14.25 7.68005C13.635 7.68005 13.125 7.17005 13.125 6.55505V3.93005C13.125 3.31505 13.635 2.80505 14.25 2.80505C14.865 2.80505 15.375 3.31505 15.375 3.93005V6.55505C15.375 7.18505 14.865 7.68005 14.25 7.68005Z" fill="#1A143C"/>
<path d="M20.25 7.68005C19.635 7.68005 19.125 7.17005 19.125 6.55505V3.93005C19.125 3.31505 19.635 2.80505 20.25 2.80505C20.865 2.80505 21.375 3.31505 21.375 3.93005V6.55505C21.375 7.18505 20.865 7.68005 20.25 7.68005Z" fill="#1A143C"/>
<path d="M32.475 21.48C32.475 24.705 29.865 27.315 26.64 27.315V15.63C29.85 15.63 32.475 18.255 32.475 21.48Z" fill="#1A143C"/>
</svg>
