<svg width="36" height="36" viewBox="0 0 36 36" fill="none" xmlns="http://www.w3.org/2000/svg">
<path opacity="0.4" d="M27 30.7499H25.5V30.3749C25.5 28.7249 24.15 27.3749 22.5 27.3749H19.125V23.9399C18.75 23.9849 18.375 23.9999 18 23.9999C17.625 23.9999 17.25 23.9849 16.875 23.9399V27.3749H13.5C11.85 27.3749 10.5 28.7249 10.5 30.3749V30.7499H9C8.385 30.7499 7.875 31.2599 7.875 31.8749C7.875 32.4899 8.385 32.9999 9 32.9999H27C27.615 32.9999 28.125 32.4899 28.125 31.8749C28.125 31.2599 27.615 30.7499 27 30.7499Z" fill="#1A143C"/>
<path opacity="0.4" d="M8.28 17.46C7.29 17.085 6.42 16.47 5.73 15.78C4.335 14.235 3.42 12.39 3.42 10.23C3.42 8.07 5.115 6.375 7.275 6.375H8.115C7.725 7.17 7.5 8.055 7.5 9V13.5C7.5 14.91 7.77 16.245 8.28 17.46Z" fill="#1A143C"/>
<path opacity="0.4" d="M32.58 10.23C32.58 12.39 31.665 14.235 30.27 15.78C29.58 16.47 28.71 17.085 27.72 17.46C28.23 16.245 28.5 14.91 28.5 13.5V9C28.5 8.055 28.275 7.17 27.885 6.375H28.725C30.885 6.375 32.58 8.07 32.58 10.23Z" fill="#1A143C"/>
<path d="M22.5 3H13.5C10.185 3 7.5 5.685 7.5 9V13.5C7.5 19.305 12.195 24 18 24C23.805 24 28.5 19.305 28.5 13.5V9C28.5 5.685 25.815 3 22.5 3ZM22.26 12.675L21.33 13.815C21.18 13.98 21.075 14.31 21.09 14.535L21.18 16.005C21.24 16.905 20.595 17.37 19.755 17.04L18.39 16.5C18.18 16.425 17.82 16.425 17.61 16.5L16.245 17.04C15.405 17.37 14.76 16.905 14.82 16.005L14.91 14.535C14.925 14.31 14.82 13.98 14.67 13.815L13.74 12.675C13.155 11.985 13.41 11.22 14.28 10.995L15.705 10.635C15.93 10.575 16.2 10.365 16.32 10.17L17.115 8.94C17.61 8.175 18.39 8.175 18.885 8.94L19.68 10.17C19.8 10.365 20.07 10.575 20.295 10.635L21.72 10.995C22.59 11.22 22.845 11.985 22.26 12.675Z" fill="#1A143C"/>
<path opacity="0.4" d="M22.26 12.675L21.33 13.815C21.18 13.98 21.075 14.31 21.09 14.535L21.18 16.005C21.24 16.905 20.595 17.37 19.755 17.04L18.39 16.5C18.18 16.425 17.82 16.425 17.61 16.5L16.245 17.04C15.405 17.37 14.76 16.905 14.82 16.005L14.91 14.535C14.925 14.31 14.82 13.98 14.67 13.815L13.74 12.675C13.155 11.985 13.41 11.22 14.28 10.995L15.705 10.635C15.93 10.575 16.2 10.365 16.32 10.17L17.115 8.93996C17.61 8.17496 18.39 8.17496 18.885 8.93996L19.68 10.17C19.8 10.365 20.07 10.575 20.295 10.635L21.72 10.995C22.59 11.22 22.845 11.985 22.26 12.675Z" fill="#1A143C"/>
</svg>
