<svg width="24" height="24" viewBox="0 0 24 24" fill="none" xmlns="http://www.w3.org/2000/svg">
<path d="M2.70996 17.02L4.44996 13.54C4.92996 12.57 4.92996 11.44 4.44996 10.47L2.70996 6.97997C1.21996 3.99997 4.42996 0.849974 7.37996 2.40997L8.91996 3.22997C9.13996 3.33997 9.30996 3.51997 9.39996 3.73997L15.09 16.39C15.32 16.91 15.11 17.52 14.61 17.78L7.36996 21.59C4.42996 23.15 1.21996 20 2.70996 17.02Z" fill="#1A143C"/>
<path opacity="0.4" d="M16.31 15.6L12.58 7.32002C12.16 6.39002 13.16 5.45002 14.06 5.93002L19.83 8.97002C22.28 10.26 22.28 13.76 19.83 15.05L17.79 16.12C17.24 16.4 16.57 16.17 16.31 15.6Z" fill="#1A143C"/>
</svg>
