<svg width="36" height="36" viewBox="0 0 36 36" fill="none" xmlns="http://www.w3.org/2000/svg">
<path d="M31.5 24.375H22.5C21.885 24.375 21.375 23.865 21.375 23.25C21.375 22.635 21.885 22.125 22.5 22.125H31.5C32.115 22.125 32.625 22.635 32.625 23.25C32.625 23.865 32.115 24.375 31.5 24.375Z" fill="#1A143C"/>
<path d="M31.5 30.375H22.5C21.885 30.375 21.375 29.865 21.375 29.25C21.375 28.635 21.885 28.125 22.5 28.125H31.5C32.115 28.125 32.625 28.635 32.625 29.25C32.625 29.865 32.115 30.375 31.5 30.375Z" fill="#1A143C"/>
<path opacity="0.4" d="M33 12.78V5.97C33 3.855 32.04 3 29.655 3H23.595C21.21 3 20.25 3.855 20.25 5.97V12.765C20.25 14.895 21.21 15.735 23.595 15.735H29.655C32.04 15.75 33 14.895 33 12.78Z" fill="#1A143C"/>
<path d="M15.75 12.78V5.97C15.75 3.855 14.79 3 12.405 3H6.345C3.96 3 3 3.855 3 5.97V12.765C3 14.895 3.96 15.735 6.345 15.735H12.405C14.79 15.75 15.75 14.895 15.75 12.78Z" fill="#1A143C"/>
<path opacity="0.4" d="M15.75 29.655V23.595C15.75 21.21 14.79 20.25 12.405 20.25H6.345C3.96 20.25 3 21.21 3 23.595V29.655C3 32.04 3.96 33 6.345 33H12.405C14.79 33 15.75 32.04 15.75 29.655Z" fill="#1A143C"/>
</svg>
