<svg width="18" height="18" viewBox="0 0 18 18" fill="none" xmlns="http://www.w3.org/2000/svg">
<path d="M10.8974 7.1025L7.10244 10.8975C6.61494 10.41 6.31494 9.7425 6.31494 9C6.31494 7.515 7.51494 6.315 8.99994 6.315C9.74244 6.315 10.4099 6.615 10.8974 7.1025Z" stroke="#1A143C" stroke-width="1.5" stroke-linecap="round" stroke-linejoin="round"/>
<path d="M13.3649 4.32749C12.0524 3.33749 10.5524 2.79749 8.99988 2.79749C6.35238 2.79749 3.88488 4.35749 2.16738 7.05749C1.49238 8.11499 1.49238 9.89249 2.16738 10.95C2.75988 11.88 3.44988 12.6825 4.19988 13.3275" stroke="#1A143C" stroke-width="1.5" stroke-linecap="round" stroke-linejoin="round"/>
<path d="M6.31494 14.6475C7.16994 15.0075 8.07744 15.2025 8.99994 15.2025C11.6474 15.2025 14.1149 13.6425 15.8324 10.9425C16.5074 9.88501 16.5074 8.10751 15.8324 7.05001C15.5849 6.66001 15.3149 6.29251 15.0374 5.94751" stroke="#1A143C" stroke-width="1.5" stroke-linecap="round" stroke-linejoin="round"/>
<path d="M11.6326 9.52502C11.4376 10.5825 10.5751 11.445 9.51758 11.64" stroke="#1A143C" stroke-width="1.5" stroke-linecap="round" stroke-linejoin="round"/>
<path d="M7.1025 10.8975L1.5 16.5" stroke="#1A143C" stroke-width="1.5" stroke-linecap="round" stroke-linejoin="round"/>
<path d="M16.5 1.5L10.8975 7.1025" stroke="#1A143C" stroke-width="1.5" stroke-linecap="round" stroke-linejoin="round"/>
</svg>
