<svg width="18" height="19" viewBox="0 0 18 19" fill="none" xmlns="http://www.w3.org/2000/svg">
<path d="M11.6849 9.49994C11.6849 10.9849 10.4849 12.1849 8.99994 12.1849C7.51494 12.1849 6.31494 10.9849 6.31494 9.49994C6.31494 8.01494 7.51494 6.81494 8.99994 6.81494C10.4849 6.81494 11.6849 8.01494 11.6849 9.49994Z" stroke="#1A143C" stroke-width="1.5" stroke-linecap="round" stroke-linejoin="round"/>
<path d="M8.99988 15.7025C11.6474 15.7025 14.1149 14.1425 15.8324 11.4425C16.5074 10.385 16.5074 8.60754 15.8324 7.55004C14.1149 4.85004 11.6474 3.29004 8.99988 3.29004C6.35238 3.29004 3.88488 4.85004 2.16738 7.55004C1.49238 8.60754 1.49238 10.385 2.16738 11.4425C3.88488 14.1425 6.35238 15.7025 8.99988 15.7025Z" stroke="#1A143C" stroke-width="1.5" stroke-linecap="round" stroke-linejoin="round"/>
</svg>
