<svg width="18" height="19" viewBox="0 0 18 19" fill="none" xmlns="http://www.w3.org/2000/svg">
<path d="M15 5.7125V13.2875C14.88 13.265 14.7525 13.25 14.625 13.25C13.59 13.25 12.75 14.09 12.75 15.125C12.75 15.2525 12.765 15.38 12.7875 15.5H5.2125C5.235 15.38 5.25 15.2525 5.25 15.125C5.25 14.09 4.41 13.25 3.375 13.25C3.2475 13.25 3.12 13.265 3 13.2875V5.7125C3.12 5.735 3.2475 5.75 3.375 5.75C4.41 5.75 5.25 4.91 5.25 3.875C5.25 3.7475 5.235 3.62 5.2125 3.5H12.7875C12.765 3.62 12.75 3.7475 12.75 3.875C12.75 4.91 13.59 5.75 14.625 5.75C14.7525 5.75 14.88 5.735 15 5.7125Z" stroke="white" stroke-width="1.5" stroke-linecap="round" stroke-linejoin="round"/>
<path d="M5.25 3.875C5.25 4.91 4.41 5.75 3.375 5.75C3.2475 5.75 3.12 5.735 3 5.7125C2.145 5.54 1.5 4.7825 1.5 3.875C1.5 2.84 2.34 2 3.375 2C4.2825 2 5.04 2.645 5.2125 3.5C5.235 3.62 5.25 3.7475 5.25 3.875Z" stroke="white" stroke-width="1.5" stroke-linecap="round" stroke-linejoin="round"/>
<path d="M16.5 3.875C16.5 4.7825 15.855 5.54 15 5.7125C14.88 5.735 14.7525 5.75 14.625 5.75C13.59 5.75 12.75 4.91 12.75 3.875C12.75 3.7475 12.765 3.62 12.7875 3.5C12.96 2.645 13.7175 2 14.625 2C15.66 2 16.5 2.84 16.5 3.875Z" stroke="white" stroke-width="1.5" stroke-linecap="round" stroke-linejoin="round"/>
<path d="M5.25 15.125C5.25 15.2525 5.235 15.38 5.2125 15.5C5.04 16.355 4.2825 17 3.375 17C2.34 17 1.5 16.16 1.5 15.125C1.5 14.2175 2.145 13.46 3 13.2875C3.12 13.265 3.2475 13.25 3.375 13.25C4.41 13.25 5.25 14.09 5.25 15.125Z" stroke="white" stroke-width="1.5" stroke-linecap="round" stroke-linejoin="round"/>
<path d="M16.5 15.125C16.5 16.16 15.66 17 14.625 17C13.7175 17 12.96 16.355 12.7875 15.5C12.765 15.38 12.75 15.2525 12.75 15.125C12.75 14.09 13.59 13.25 14.625 13.25C14.7525 13.25 14.88 13.265 15 13.2875C15.855 13.46 16.5 14.2175 16.5 15.125Z" stroke="white" stroke-width="1.5" stroke-linecap="round" stroke-linejoin="round"/>
</svg>
