<svg width="24" height="25" viewBox="0 0 24 25" fill="none" xmlns="http://www.w3.org/2000/svg">
<path d="M20 7.45V17.55C19.84 17.52 19.67 17.5 19.5 17.5C18.12 17.5 17 18.62 17 20C17 20.17 17.02 20.34 17.05 20.5H6.95C6.98 20.34 7 20.17 7 20C7 18.62 5.88 17.5 4.5 17.5C4.33 17.5 4.16 17.52 4 17.55V7.45C4.16 7.48 4.33 7.5 4.5 7.5C5.88 7.5 7 6.38 7 5C7 4.83 6.98 4.66 6.95 4.5H17.05C17.02 4.66 17 4.83 17 5C17 6.38 18.12 7.5 19.5 7.5C19.67 7.5 19.84 7.48 20 7.45Z" stroke="#1A143C" stroke-width="2" stroke-linecap="round" stroke-linejoin="round"/>
<path d="M7 5C7 6.38 5.88 7.5 4.5 7.5C4.33 7.5 4.16 7.48 4 7.45C2.86 7.22 2 6.21 2 5C2 3.62 3.12 2.5 4.5 2.5C5.71 2.5 6.72 3.36 6.95 4.5C6.98 4.66 7 4.83 7 5Z" stroke="#1A143C" stroke-width="2" stroke-linecap="round" stroke-linejoin="round"/>
<path d="M22 5C22 6.21 21.14 7.22 20 7.45C19.84 7.48 19.67 7.5 19.5 7.5C18.12 7.5 17 6.38 17 5C17 4.83 17.02 4.66 17.05 4.5C17.28 3.36 18.29 2.5 19.5 2.5C20.88 2.5 22 3.62 22 5Z" stroke="#1A143C" stroke-width="2" stroke-linecap="round" stroke-linejoin="round"/>
<path d="M7 20C7 20.17 6.98 20.34 6.95 20.5C6.72 21.64 5.71 22.5 4.5 22.5C3.12 22.5 2 21.38 2 20C2 18.79 2.86 17.78 4 17.55C4.16 17.52 4.33 17.5 4.5 17.5C5.88 17.5 7 18.62 7 20Z" stroke="#1A143C" stroke-width="2" stroke-linecap="round" stroke-linejoin="round"/>
<path d="M22 20C22 21.38 20.88 22.5 19.5 22.5C18.29 22.5 17.28 21.64 17.05 20.5C17.02 20.34 17 20.17 17 20C17 18.62 18.12 17.5 19.5 17.5C19.67 17.5 19.84 17.52 20 17.55C21.14 17.78 22 18.79 22 20Z" stroke="#1A143C" stroke-width="2" stroke-linecap="round" stroke-linejoin="round"/>
</svg>
