<svg width="32" height="32" viewBox="0 0 32 32" fill="none" xmlns="http://www.w3.org/2000/svg">
<path opacity="0.4" d="M10.2 27.88C10.16 27.88 10.1067 27.9066 10.0667 27.9066C7.48002 26.6266 5.37335 24.5066 4.08002 21.92C4.08002 21.88 4.10668 21.8266 4.10668 21.7866C5.73335 22.2666 7.41335 22.6266 9.08002 22.9066C9.37335 24.5866 9.72002 26.2533 10.2 27.88Z" fill="white"/>
<path opacity="0.4" d="M27.92 21.9333C26.6 24.5866 24.4 26.7333 21.72 28.0266C22.2266 26.3333 22.6533 24.6266 22.9333 22.9066C24.6133 22.6266 26.2666 22.2666 27.8933 21.7866C27.88 21.84 27.92 21.8933 27.92 21.9333Z" fill="white"/>
<path opacity="0.4" d="M28.0266 10.2801C26.3466 9.77339 24.6533 9.36006 22.9333 9.06672C22.6533 7.34672 22.24 5.64006 21.72 3.97339C24.48 5.29339 26.7066 7.52006 28.0266 10.2801Z" fill="white"/>
<path opacity="0.4" d="M10.2 4.11996C9.71999 5.74662 9.37333 7.39996 9.09333 9.07996C7.37333 9.34662 5.66666 9.77329 3.97333 10.28C5.26666 7.59996 7.41333 5.39996 10.0667 4.07996C10.1067 4.07996 10.16 4.11996 10.2 4.11996Z" fill="white"/>
<path d="M20.6533 8.78663C17.56 8.43996 14.44 8.43996 11.3467 8.78663C11.68 6.95996 12.1067 5.13329 12.7067 3.37329C12.7333 3.26663 12.72 3.18663 12.7333 3.07996C13.7867 2.82663 14.8667 2.66663 16 2.66663C17.12 2.66663 18.2133 2.82663 19.2533 3.07996C19.2667 3.18663 19.2667 3.26663 19.2933 3.37329C19.8933 5.14663 20.32 6.95996 20.6533 8.78663Z" fill="white"/>
<path d="M8.78669 20.6533C6.94669 20.32 5.13335 19.8933 3.37335 19.2933C3.26669 19.2667 3.18669 19.28 3.08002 19.2667C2.82669 18.2133 2.66669 17.1333 2.66669 16C2.66669 14.88 2.82669 13.7867 3.08002 12.7467C3.18669 12.7333 3.26669 12.7333 3.37335 12.7067C5.14669 12.12 6.94669 11.68 8.78669 11.3467C8.45335 14.44 8.45335 17.56 8.78669 20.6533Z" fill="white"/>
<path d="M29.3333 16C29.3333 17.1333 29.1733 18.2133 28.92 19.2667C28.8133 19.28 28.7333 19.2667 28.6267 19.2933C26.8533 19.88 25.04 20.32 23.2133 20.6533C23.56 17.56 23.56 14.44 23.2133 11.3467C25.04 11.68 26.8667 12.1067 28.6267 12.7067C28.7333 12.7333 28.8133 12.7467 28.92 12.7467C29.1733 13.8 29.3333 14.88 29.3333 16Z" fill="white"/>
<path d="M20.6533 23.2134C20.32 25.0534 19.8933 26.8667 19.2933 28.6267C19.2667 28.7334 19.2667 28.8134 19.2533 28.92C18.2133 29.1734 17.12 29.3334 16 29.3334C14.8667 29.3334 13.7867 29.1734 12.7333 28.92C12.72 28.8134 12.7333 28.7334 12.7067 28.6267C12.12 26.8534 11.68 25.0534 11.3467 23.2134C12.8933 23.3867 14.44 23.5067 16 23.5067C17.56 23.5067 19.12 23.3867 20.6533 23.2134Z" fill="white"/>
<path d="M21.0178 21.0177C17.683 21.4385 14.317 21.4385 10.9822 21.0177C10.5615 17.6829 10.5615 14.317 10.9822 10.9822C14.317 10.5614 17.683 10.5614 21.0178 10.9822C21.4385 14.317 21.4385 17.6829 21.0178 21.0177Z" fill="white"/>
</svg>
