<svg width="32" height="32" viewBox="0 0 32 32" fill="none" xmlns="http://www.w3.org/2000/svg">
<path d="M30.3333 29.3334C30.3333 29.88 29.88 30.3334 29.3333 30.3334H2.66663C2.11996 30.3334 1.66663 29.88 1.66663 29.3334C1.66663 28.7734 2.11996 28.3334 2.66663 28.3334H29.3333C29.88 28.3334 30.3333 28.7734 30.3333 29.3334Z" fill="white"/>
<path opacity="0.4" d="M28 13.3067V28.3333H3.93335L4.00002 13.2933C4.00002 12.48 4.37335 11.7067 5.02668 11.2L14.36 3.94671C15.32 3.18671 16.68 3.18671 17.64 3.94671L26.9734 11.2C27.6267 11.7067 28 12.48 28 13.3067Z" fill="white"/>
<path d="M18 11H14C13.4533 11 13 10.5467 13 10C13 9.45333 13.4533 9 14 9H18C18.5467 9 19 9.45333 19 10C19 10.5467 18.5467 11 18 11Z" fill="white"/>
<path d="M20.6667 14.6666H11.3334C10.2267 14.6666 9.33337 15.56 9.33337 16.6666V29.3333H22.6667V16.6666C22.6667 15.56 21.7734 14.6666 20.6667 14.6666ZM14.3334 23.6666C14.3334 24.2133 13.88 24.6666 13.3334 24.6666C12.7867 24.6666 12.3334 24.2133 12.3334 23.6666V21.6666C12.3334 21.12 12.7867 20.6666 13.3334 20.6666C13.88 20.6666 14.3334 21.12 14.3334 21.6666V23.6666Z" fill="white"/>
</svg>
