<svg width="32" height="32" viewBox="0 0 32 32" fill="none" xmlns="http://www.w3.org/2000/svg">
<path d="M30.3333 29.3334C30.3333 29.88 29.88 30.3334 29.3333 30.3334H2.66667C2.12 30.3334 1.66667 29.88 1.66667 29.3334C1.66667 28.7734 2.12 28.3334 2.66667 28.3334H29.3333C29.88 28.3334 30.3333 28.7734 30.3333 29.3334Z" fill="#1A143C"/>
<path opacity="0.4" d="M28 13.3067V28.3333H3.93333L4 13.2933C4 12.48 4.37333 11.7067 5.02666 11.2L14.36 3.94671C15.32 3.18671 16.68 3.18671 17.64 3.94671L26.9733 11.2C27.6267 11.7067 28 12.48 28 13.3067Z" fill="#1A143C"/>
<path d="M18 11H14C13.4533 11 13 10.5467 13 10C13 9.45333 13.4533 9 14 9H18C18.5467 9 19 9.45333 19 10C19 10.5467 18.5467 11 18 11Z" fill="#1A143C"/>
<path d="M20.6667 14.6666H11.3333C10.2267 14.6666 9.33333 15.56 9.33333 16.6666V29.3333H22.6667V16.6666C22.6667 15.56 21.7733 14.6666 20.6667 14.6666ZM14.3333 23.6666C14.3333 24.2133 13.88 24.6666 13.3333 24.6666C12.7867 24.6666 12.3333 24.2133 12.3333 23.6666V21.6666C12.3333 21.12 12.7867 20.6666 13.3333 20.6666C13.88 20.6666 14.3333 21.12 14.3333 21.6666V23.6666Z" fill="#1A143C"/>
</svg>
