<svg width="36" height="37" viewBox="0 0 36 37" fill="none" xmlns="http://www.w3.org/2000/svg">
<path opacity="0.4" d="M28.5 14C28.5 16.175 27.855 18.17 26.745 19.835C25.125 22.235 22.56 23.93 19.575 24.365C19.065 24.455 18.54 24.5 18 24.5C17.46 24.5 16.935 24.455 16.425 24.365C13.44 23.93 10.875 22.235 9.255 19.835C8.145 18.17 7.5 16.175 7.5 14C7.5 8.195 12.195 3.5 18 3.5C23.805 3.5 28.5 8.195 28.5 14Z" fill="#1A143C"/>
<path d="M31.875 28.205L29.4 28.79C28.845 28.925 28.41 29.345 28.29 29.9L27.765 32.105C27.48 33.305 25.95 33.665 25.155 32.72L18 24.5L10.845 32.735C10.05 33.68 8.52 33.32 8.235 32.12L7.71 29.915C7.575 29.36 7.14 28.925 6.6 28.805L4.125 28.22C2.985 27.95 2.58 26.525 3.405 25.7L9.255 19.85C10.875 22.25 13.44 23.945 16.425 24.38C16.935 24.47 17.46 24.515 18 24.515C18.54 24.515 19.065 24.47 19.575 24.38C22.56 23.945 25.125 22.25 26.745 19.85L32.595 25.7C33.42 26.51 33.015 27.935 31.875 28.205Z" fill="#1A143C"/>
<path d="M18.87 9.47L19.755 11.24C19.875 11.48 20.19 11.72 20.475 11.765L22.08 12.035C23.1 12.2 23.34 12.95 22.605 13.685L21.36 14.93C21.15 15.14 21.03 15.545 21.105 15.845L21.465 17.39C21.75 18.605 21.105 19.085 20.025 18.44L18.525 17.555C18.255 17.39 17.805 17.39 17.535 17.555L16.035 18.44C14.955 19.07 14.31 18.605 14.595 17.39L14.955 15.845C15.015 15.56 14.91 15.14 14.7 14.93L13.455 13.685C12.72 12.95 12.96 12.215 13.98 12.035L15.585 11.765C15.855 11.72 16.17 11.48 16.29 11.24L17.175 9.47C17.61 8.51 18.39 8.51 18.87 9.47Z" fill="#1A143C"/>
</svg>
