<svg width="20" height="20" viewBox="0 0 20 20" fill="none" xmlns="http://www.w3.org/2000/svg">
<path d="M18.3334 8.33342V10.8334C18.3334 14.1667 16.6667 15.8334 13.3334 15.8334H12.9167C12.6584 15.8334 12.4084 15.9584 12.25 16.1667L11 17.8334C10.45 18.5667 9.55002 18.5667 9.00002 17.8334L7.75002 16.1667C7.61669 15.9834 7.30835 15.8334 7.08335 15.8334H6.66669C3.33335 15.8334 1.66669 15.0001 1.66669 10.8334V6.66675C1.66669 3.33341 3.33335 1.66675 6.66669 1.66675H11.6667" stroke="white" stroke-width="2" stroke-miterlimit="10" stroke-linecap="round" stroke-linejoin="round"/>
<path d="M16.25 5.83341C17.4006 5.83341 18.3334 4.90067 18.3334 3.75008C18.3334 2.59949 17.4006 1.66675 16.25 1.66675C15.0994 1.66675 14.1667 2.59949 14.1667 3.75008C14.1667 4.90067 15.0994 5.83341 16.25 5.83341Z" stroke="white" stroke-width="2" stroke-linecap="round" stroke-linejoin="round"/>
<path d="M13.3304 9.16667H13.3378" stroke="white" stroke-width="2" stroke-linecap="round" stroke-linejoin="round"/>
<path d="M9.99626 9.16667H10.0037" stroke="white" stroke-width="2" stroke-linecap="round" stroke-linejoin="round"/>
<path d="M6.66209 9.16667H6.66957" stroke="white" stroke-width="2" stroke-linecap="round" stroke-linejoin="round"/>
</svg>
