<svg width="36" height="36" viewBox="0 0 36 36" fill="none" xmlns="http://www.w3.org/2000/svg">
<path d="M22.26 16.35L30.75 10.665C31.605 10.095 31.83 8.92503 31.26 8.08503L28.53 4.02C27.96 3.165 26.79 2.94001 25.95 3.51001L17.46 9.19502L22.26 16.35Z" fill="#1A143C"/>
<path d="M21.78 15.63L19.14 17.4L15.135 20.085L14.61 20.43L14.37 20.07L11.01 15.06L10.77 14.7L17.94 9.90002L21.78 15.63Z" fill="#1A143C"/>
<path d="M8.46003 24.03L14.385 20.0701L11.025 15.0601L5.10003 19.02C4.41003 19.485 4.23002 20.4151 4.69502 21.1051L6.39003 23.625C6.84003 24.315 7.77003 24.495 8.46003 24.03Z" fill="#1A143C"/>
<path opacity="0.4" d="M24.84 32.715C24.69 32.775 24.525 32.82 24.375 32.82C23.94 32.82 23.535 32.565 23.34 32.145L17.745 19.785L12.075 32.16C11.88 32.565 11.475 32.82 11.04 32.82C10.89 32.82 10.725 32.775 10.575 32.715C10.02 32.445 9.76503 31.785 10.02 31.215L15.135 20.085L19.14 17.4L25.395 31.23C25.65 31.785 25.395 32.46 24.84 32.715Z" fill="#1A143C"/>
</svg>
