<svg width="19" height="19" viewBox="0 0 19 19" fill="none" xmlns="http://www.w3.org/2000/svg">
<path d="M7.37004 8.6525C7.29504 8.645 7.20504 8.645 7.12254 8.6525C5.33754 8.5925 3.92004 7.13 3.92004 5.33C3.92004 3.4925 5.40504 2 7.25004 2C9.08754 2 10.58 3.4925 10.58 5.33C10.5725 7.13 9.15504 8.5925 7.37004 8.6525Z" stroke="white" stroke-width="1.5" stroke-linecap="round" stroke-linejoin="round"/>
<path d="M12.8075 3.5C14.2625 3.5 15.4325 4.6775 15.4325 6.125C15.4325 7.5425 14.3075 8.6975 12.905 8.75C12.845 8.7425 12.7775 8.7425 12.71 8.75" stroke="white" stroke-width="1.5" stroke-linecap="round" stroke-linejoin="round"/>
<path d="M3.62004 11.42C1.80504 12.635 1.80504 14.615 3.62004 15.8225C5.68254 17.2025 9.06504 17.2025 11.1275 15.8225C12.9425 14.6075 12.9425 12.6275 11.1275 11.42C9.07254 10.0475 5.69004 10.0475 3.62004 11.42Z" stroke="white" stroke-width="1.5" stroke-linecap="round" stroke-linejoin="round"/>
<path d="M14.255 15.5C14.795 15.3875 15.305 15.17 15.725 14.8475C16.895 13.97 16.895 12.5225 15.725 11.645C15.3125 11.33 14.81 11.12 14.2775 11" stroke="white" stroke-width="1.5" stroke-linecap="round" stroke-linejoin="round"/>
</svg>
