<svg width="36" height="36" viewBox="0 0 36 36" fill="none" xmlns="http://www.w3.org/2000/svg">
<path opacity="0.4" d="M27.495 8.505L9.88501 26.115C9.22501 26.775 8.115 26.685 7.575 25.905C5.715 23.19 4.62 19.98 4.62 16.68V10.095C4.62 8.86499 5.55 7.47 6.69 7.005L15.045 3.585C16.935 2.805 19.035 2.805 20.925 3.585L26.985 6.05999C27.99 6.46499 28.245 7.755 27.495 8.505Z" fill="#1A143C"/>
<path d="M28.905 10.5599C29.88 9.73494 31.365 10.4399 31.365 11.7149V16.6799C31.365 24.0149 26.04 30.8849 18.765 32.8949C18.27 33.0299 17.73 33.0299 17.22 32.8949C15.09 32.2949 13.11 31.2899 11.415 29.9699C10.695 29.4149 10.62 28.3649 11.25 27.7199C14.52 24.3749 24.09 14.6249 28.905 10.5599Z" fill="#1A143C"/>
</svg>
