<svg width="24" height="24" viewBox="0 0 24 24" fill="none" xmlns="http://www.w3.org/2000/svg">
<path opacity="0.4" d="M17 20.5H7C4 20.5 2 19 2 15.5V8.5C2 5 4 3.5 7 3.5H17C20 3.5 22 5 22 8.5V15.5C22 19 20 20.5 17 20.5Z" fill="#1A143C"/>
<path d="M12 12.87C11.16 12.87 10.31 12.61 9.66003 12.08L6.53002 9.58C6.21002 9.32 6.15003 8.85 6.41003 8.53C6.67003 8.21 7.14003 8.15 7.46003 8.41L10.59 10.91C11.35 11.52 12.64 11.52 13.4 10.91L16.53 8.41C16.85 8.15 17.33 8.2 17.58 8.53C17.84 8.85 17.79 9.33 17.46 9.58L14.33 12.08C13.69 12.61 12.84 12.87 12 12.87Z" fill="#1A143C"/>
</svg>
