<svg width="36" height="36" viewBox="0 0 36 36" fill="none" xmlns="http://www.w3.org/2000/svg">
<path d="M27.72 18.375C28.14 18.375 28.5 18.015 28.47 17.595C28.065 12.165 23.535 7.875 18 7.875C12.465 7.875 7.93504 12.15 7.53004 17.595C7.50004 18.015 7.86004 18.375 8.28004 18.375H27.72Z" fill="#1A143C"/>
<path d="M33 19.5H32.88C32.055 19.5 31.38 18.825 31.38 18C31.38 17.175 32.055 16.5 32.88 16.5C33.705 16.5 34.44 17.175 34.44 18C34.44 18.825 33.825 19.5 33 19.5ZM3.12003 19.5H3C2.175 19.5 1.5 18.825 1.5 18C1.5 17.175 2.175 16.5 3 16.5C3.825 16.5 4.55997 17.175 4.55997 18C4.55997 18.825 3.94503 19.5 3.12003 19.5ZM28.515 8.98501C28.125 8.98501 27.75 8.835 27.45 8.55C26.865 7.965 26.865 7.01999 27.45 6.43499L27.645 6.24001C28.23 5.65501 29.175 5.65501 29.76 6.24001C30.345 6.82501 30.345 7.77001 29.76 8.35501L29.565 8.55C29.28 8.835 28.905 8.98501 28.515 8.98501ZM7.48499 8.98501C7.09499 8.98501 6.72004 8.835 6.42004 8.55L6.22504 8.35501C5.64004 7.77001 5.64004 6.82501 6.22504 6.24001C6.81004 5.65501 7.755 5.65501 8.34 6.24001L8.535 6.43499C9.12 7.01999 9.12 7.965 8.535 8.55C8.25 8.835 7.85999 8.98501 7.48499 8.98501ZM18 4.55999C17.175 4.55999 16.5 3.945 16.5 3.12V3C16.5 2.175 17.175 1.5 18 1.5C18.825 1.5 19.5 2.175 19.5 3C19.5 3.825 18.825 4.55999 18 4.55999Z" fill="#1A143C"/>
<path opacity="0.4" d="M30 23.625H6C5.385 23.625 4.875 23.115 4.875 22.5C4.875 21.885 5.385 21.375 6 21.375H30C30.615 21.375 31.125 21.885 31.125 22.5C31.125 23.115 30.615 23.625 30 23.625Z" fill="#1A143C"/>
<path opacity="0.4" d="M27 28.125H9C8.385 28.125 7.875 27.615 7.875 27C7.875 26.385 8.385 25.875 9 25.875H27C27.615 25.875 28.125 26.385 28.125 27C28.125 27.615 27.615 28.125 27 28.125Z" fill="#1A143C"/>
<path opacity="0.4" d="M22.5 32.625H13.5C12.885 32.625 12.375 32.115 12.375 31.5C12.375 30.885 12.885 30.375 13.5 30.375H22.5C23.115 30.375 23.625 30.885 23.625 31.5C23.625 32.115 23.115 32.625 22.5 32.625Z" fill="#1A143C"/>
</svg>
