<svg width="32" height="32" viewBox="0 0 32 32" fill="none" xmlns="http://www.w3.org/2000/svg">
<path opacity="0.4" d="M16 29.3334C23.3638 29.3334 29.3334 23.3639 29.3334 16.0001C29.3334 8.63628 23.3638 2.66675 16 2.66675C8.63622 2.66675 2.66669 8.63628 2.66669 16.0001C2.66669 23.3639 8.63622 29.3334 16 29.3334Z" fill="#1EBA53"/>
<path d="M14.1067 20.7732C13.84 20.7732 13.5867 20.6666 13.4 20.4799L9.62667 16.7066C9.24 16.3199 9.24 15.6799 9.62667 15.2932C10.0133 14.9066 10.6533 14.9066 11.04 15.2932L14.1067 18.3599L20.96 11.5066C21.3467 11.1199 21.9867 11.1199 22.3733 11.5066C22.76 11.8932 22.76 12.5332 22.3733 12.9199L14.8133 20.4799C14.6267 20.6666 14.3733 20.7732 14.1067 20.7732Z" fill="#1EBA53"/>
</svg>
