<svg width="24" height="25" viewBox="0 0 24 25" fill="none" xmlns="http://www.w3.org/2000/svg">
<path opacity="0.4" d="M21.3 11.34C21.69 11.34 22 11.03 22 10.64V9.70999C22 5.60999 20.75 4.35999 16.65 4.35999H7.35C3.25 4.35999 2 5.60999 2 9.70999V10.18C2 10.57 2.31 10.88 2.7 10.88C3.6 10.88 4.33 11.61 4.33 12.51C4.33 13.41 3.6 14.13 2.7 14.13C2.31 14.13 2 14.44 2 14.83V15.3C2 19.4 3.25 20.65 7.35 20.65H16.65C20.75 20.65 22 19.4 22 15.3C22 14.91 21.69 14.6 21.3 14.6C20.4 14.6 19.67 13.87 19.67 12.97C19.67 12.07 20.4 11.34 21.3 11.34Z" fill="#1A143C"/>
<path d="M15.0002 16.38C14.4402 16.38 13.9902 15.93 13.9902 15.38C13.9902 14.83 14.4402 14.38 14.9902 14.38C15.5402 14.38 15.9902 14.83 15.9902 15.38C15.9902 15.93 15.5602 16.38 15.0002 16.38Z" fill="#1A143C"/>
<path d="M9.00023 11.38C8.44023 11.38 7.99023 10.93 7.99023 10.38C7.99023 9.83 8.44023 9.38 8.99023 9.38C9.54023 9.38 9.99023 9.83 9.99023 10.38C9.99023 10.93 9.56023 11.38 9.00023 11.38Z" fill="#1A143C"/>
<path d="M8.62982 16.93C8.43982 16.93 8.24982 16.86 8.09982 16.71C7.80982 16.42 7.80982 15.94 8.09982 15.65L14.8298 8.92001C15.1198 8.63001 15.5998 8.63001 15.8898 8.92001C16.1798 9.21001 16.1798 9.69001 15.8898 9.98001L9.15982 16.71C9.01982 16.86 8.81982 16.93 8.62982 16.93Z" fill="#1A143C"/>
</svg>
