<svg width="36" height="36" viewBox="0 0 36 36" fill="none" xmlns="http://www.w3.org/2000/svg">
<path opacity="0.4" d="M33 11.715V24.285C33 29.745 29.745 33 24.285 33H11.715C6.255 33 3 29.745 3 24.285V11.715C3 10.95 3.06 10.215 3.195 9.54C3.96 5.415 7.005 3.015 11.655 3H24.345C28.995 3.015 32.04 5.415 32.805 9.54C32.94 10.215 33 10.95 33 11.715Z" fill="#1A143C"/>
<path d="M33 11.715V11.79H3V11.715C3 10.95 3.06 10.215 3.195 9.54H11.655V3H13.905V9.54H22.095V3H24.345V9.54H32.805C32.94 10.215 33 10.95 33 11.715Z" fill="#1A143C"/>
<path d="M21.6601 19.08L18.5401 17.28C17.3851 16.62 16.2751 16.53 15.4051 17.025C14.5351 17.52 14.0551 18.54 14.0551 19.86V23.46C14.0551 24.78 14.5351 25.8 15.4051 26.295C15.7801 26.505 16.2001 26.61 16.6351 26.61C17.2351 26.61 17.8801 26.415 18.5401 26.04L21.6601 24.24C22.8151 23.58 23.4451 22.65 23.4451 21.645C23.4451 20.64 22.8001 19.755 21.6601 19.08Z" fill="#1A143C"/>
</svg>
