<svg width="62" height="20" viewBox="0 0 62 20" fill="none" xmlns="http://www.w3.org/2000/svg">
<g clip-path="url(#clip0_45_1839)">
<path d="M40.3188 0.0244141C35.9467 0.0244141 32.0395 2.2906 32.0395 6.47754C32.0395 11.2791 38.969 11.6108 38.969 14.023C38.969 15.0386 37.805 15.9479 35.817 15.9479C32.9957 15.9479 30.887 14.6774 30.887 14.6774L29.9847 18.9025C29.9847 18.9025 32.4139 19.9756 35.639 19.9756C40.4192 19.9756 44.1806 17.5981 44.1806 13.3397C44.1806 8.26591 37.2223 7.94409 37.2223 5.70522C37.2223 4.90947 38.1777 4.03773 40.1601 4.03773C42.3966 4.03773 44.2215 4.96168 44.2215 4.96168L45.1045 0.880997C45.1045 0.880997 43.119 0.0244141 40.3188 0.0244141ZM0.317808 0.332419L0.211914 0.948368C0.211914 0.948368 2.05132 1.28497 3.70796 1.95652C5.841 2.7265 5.993 3.17479 6.35223 4.56707L10.2669 19.658H15.5146L23.599 0.332419H18.3634L13.1687 13.472L11.0489 2.33424C10.8545 1.05956 9.86979 0.332419 8.66446 0.332419H0.317808ZM25.7043 0.332419L21.5972 19.658H26.5898L30.6825 0.332357H25.7043V0.332419ZM53.5499 0.332419C52.3459 0.332419 51.7081 0.976968 51.24 2.10328L43.9255 19.658H49.1612L50.1741 16.7321H56.5526L57.1686 19.658H61.7883L57.7581 0.332419H53.5499ZM54.2308 5.55359L55.7827 12.8055H51.625L54.2308 5.55359Z" fill="#1434CB"/>
</g>
<defs>
<clipPath id="clip0_45_1839">
<rect width="61.5764" height="20" fill="white" transform="translate(0.211914)"/>
</clipPath>
</defs>
</svg>
