<svg width="36" height="36" viewBox="0 0 36 36" fill="none" xmlns="http://www.w3.org/2000/svg">
<path opacity="0.4" d="M25.77 7.875C23.205 7.875 20.145 8.85 20.145 13.5V22.5C20.145 27.15 23.205 28.125 25.77 28.125C28.335 28.125 31.395 27.15 31.395 22.5V13.5C31.395 8.85 28.335 7.875 25.77 7.875Z" fill="#1A143C"/>
<path opacity="0.4" d="M10.23 7.875C7.66498 7.875 4.60498 8.85 4.60498 13.5V22.5C4.60498 27.15 7.66498 28.125 10.23 28.125C12.795 28.125 15.855 27.15 15.855 22.5V13.5C15.855 8.85 12.795 7.875 10.23 7.875Z" fill="#1A143C"/>
<path d="M20.145 16.875H15.855V19.125H20.145V16.875Z" fill="#1A143C"/>
<path d="M33.75 22.875C33.135 22.875 32.625 22.365 32.625 21.75V14.25C32.625 13.635 33.135 13.125 33.75 13.125C34.365 13.125 34.875 13.635 34.875 14.25V21.75C34.875 22.365 34.365 22.875 33.75 22.875Z" fill="#1A143C"/>
<path d="M2.25 22.875C1.635 22.875 1.125 22.365 1.125 21.75V14.25C1.125 13.635 1.635 13.125 2.25 13.125C2.865 13.125 3.375 13.635 3.375 14.25V21.75C3.375 22.365 2.865 22.875 2.25 22.875Z" fill="#1A143C"/>
</svg>
