<svg width="134" height="36" viewBox="0 0 134 36" fill="none" xmlns="http://www.w3.org/2000/svg">
<g clip-path="url(#clip0_17_2884)">
<path fill-rule="evenodd" clip-rule="evenodd" d="M12.0421 0.453171C10.0609 0.453171 8.16085 1.2402 6.75993 2.64112L0 9.401V12.4952C0 14.6813 0.93902 16.6481 2.43572 18.0141C0.93902 19.3802 0 21.3469 0 23.533V26.6273L6.75993 33.3872C8.16085 34.7881 10.0609 35.5751 12.0421 35.5751C14.2282 35.5751 16.1949 34.6361 17.561 33.1394C18.927 34.6361 20.8938 35.5751 23.0799 35.5751C25.0611 35.5751 26.9611 34.7881 28.362 33.3872L35.122 26.6273V23.533C35.122 21.3469 34.183 19.3802 32.6862 18.0141C34.183 16.6481 35.122 14.6813 35.122 12.4952V9.401L28.362 2.64112C26.9611 1.2402 25.0611 0.453171 23.0799 0.453171C20.8938 0.453171 18.927 1.39219 17.561 2.88888C16.1949 1.39219 14.2282 0.453171 12.0421 0.453171ZM22.6175 18.0141C22.5333 17.9373 22.4507 17.8584 22.3697 17.7774L17.561 12.9687L12.7523 17.7774C12.6713 17.8584 12.5887 17.9373 12.5045 18.0141C12.5887 18.091 12.6713 18.1699 12.7523 18.2509L17.561 23.0596L22.3697 18.2509C22.4507 18.1699 22.5333 18.091 22.6175 18.0141ZM19.5122 26.6273V28.105C19.5122 30.0754 21.1095 31.6727 23.0799 31.6727C24.026 31.6727 24.9335 31.2968 25.6026 30.6277L31.2196 25.0108V23.533C31.2196 21.5627 29.6222 19.9653 27.6519 19.9653C26.7057 19.9653 25.7982 20.3412 25.1291 21.0103L19.5122 26.6273ZM15.6098 26.6273L9.99281 21.0103C9.32374 20.3412 8.41631 19.9653 7.47011 19.9653C5.49974 19.9653 3.90244 21.5627 3.90244 23.533V25.0108L9.51937 30.6277C10.1884 31.2968 11.0959 31.6727 12.0421 31.6727C14.0124 31.6727 15.6098 30.0754 15.6098 28.105V26.6273ZM15.6098 7.92327V9.401L9.99281 15.018C9.32374 15.687 8.41631 16.0629 7.47011 16.0629C5.49974 16.0629 3.90244 14.4656 3.90244 12.4952V11.0175L9.51937 5.40055C10.1884 4.73149 11.0959 4.35561 12.0421 4.35561C14.0124 4.35561 15.6098 5.95291 15.6098 7.92327ZM25.1291 15.018L19.5122 9.401V7.92327C19.5122 5.95291 21.1095 4.35561 23.0799 4.35561C24.026 4.35561 24.9335 4.73149 25.6026 5.40055L31.2196 11.0175V12.4952C31.2196 14.4656 29.6222 16.0629 27.6519 16.0629C26.7057 16.0629 25.7982 15.687 25.1291 15.018Z" fill="#FF9357"/>
</g>
<path d="M62.1141 26H57.3861L51.1461 16.52V26H46.4181V9.032H51.1461L57.3861 18.632V9.032H62.1141V26ZM64.3388 8.816C64.3388 8.112 64.5948 7.536 65.1068 7.088C65.6188 6.624 66.2908 6.392 67.1228 6.392C67.9548 6.392 68.6188 6.624 69.1148 7.088C69.6108 7.536 69.8588 8.112 69.8588 8.816C69.8588 9.488 69.6028 10.048 69.0908 10.496C68.5948 10.944 67.9388 11.168 67.1228 11.168C66.2908 11.168 65.6188 10.944 65.1068 10.496C64.5948 10.048 64.3388 9.488 64.3388 8.816ZM69.4508 12.536V26H64.7228V12.536H69.4508ZM77.0507 12.368C77.9947 12.368 78.8107 12.576 79.4987 12.992C80.1867 13.392 80.6987 13.952 81.0347 14.672V8.24H85.7627V26H81.0347V23.864C80.6987 24.584 80.1867 25.152 79.4987 25.568C78.8107 25.968 77.9947 26.168 77.0507 26.168C75.9787 26.168 75.0107 25.896 74.1467 25.352C73.2827 24.792 72.6027 23.992 72.1067 22.952C71.6107 21.896 71.3627 20.664 71.3627 19.256C71.3627 17.848 71.6107 16.624 72.1067 15.584C72.6027 14.544 73.2827 13.752 74.1467 13.208C75.0107 12.648 75.9787 12.368 77.0507 12.368ZM78.6107 16.496C77.8747 16.496 77.2747 16.744 76.8107 17.24C76.3627 17.72 76.1387 18.392 76.1387 19.256C76.1387 20.136 76.3627 20.824 76.8107 21.32C77.2747 21.8 77.8747 22.04 78.6107 22.04C79.3147 22.04 79.8987 21.792 80.3627 21.296C80.8267 20.8 81.0587 20.12 81.0587 19.256C81.0587 18.408 80.8267 17.736 80.3627 17.24C79.8987 16.744 79.3147 16.496 78.6107 16.496ZM101.284 19.016C101.284 19.352 101.244 19.72 101.164 20.12H92.2598C92.3398 21.64 93.0038 22.4 94.2518 22.4C94.7158 22.4 95.0998 22.288 95.4038 22.064C95.7078 21.84 95.9158 21.544 96.0278 21.176H101.02C100.844 22.12 100.452 22.976 99.8438 23.744C99.2358 24.496 98.4678 25.088 97.5398 25.52C96.6118 25.952 95.5958 26.168 94.4918 26.168C93.1478 26.168 91.9558 25.896 90.9158 25.352C89.8918 24.792 89.0918 23.992 88.5158 22.952C87.9398 21.896 87.6518 20.664 87.6518 19.256C87.6518 17.848 87.9398 16.624 88.5158 15.584C89.0918 14.544 89.8998 13.752 90.9398 13.208C91.9798 12.648 93.1638 12.368 94.4918 12.368C95.8358 12.368 97.0198 12.64 98.0438 13.184C99.0678 13.728 99.8598 14.504 100.42 15.512C100.996 16.52 101.284 17.688 101.284 19.016ZM96.4838 18.152C96.4998 17.464 96.3158 16.944 95.9318 16.592C95.5478 16.24 95.0678 16.064 94.4918 16.064C93.8678 16.064 93.3558 16.24 92.9558 16.592C92.5718 16.944 92.3478 17.464 92.2838 18.152H96.4838ZM105.56 11.168C104.728 11.168 104.056 10.944 103.544 10.496C103.048 10.048 102.8 9.488 102.8 8.816C102.8 8.112 103.048 7.536 103.544 7.088C104.056 6.624 104.728 6.392 105.56 6.392C106.392 6.392 107.056 6.624 107.552 7.088C108.064 7.536 108.32 8.112 108.32 8.816C108.32 9.488 108.064 10.048 107.552 10.496C107.056 10.944 106.392 11.168 105.56 11.168ZM101.096 28.4H102.104C102.504 28.4 102.792 28.312 102.968 28.136C103.144 27.976 103.232 27.712 103.232 27.344V12.536H107.936V27.272C107.936 30.712 106.208 32.432 102.752 32.432H101.096V28.4ZM110.112 8.816C110.112 8.112 110.368 7.536 110.88 7.088C111.392 6.624 112.064 6.392 112.896 6.392C113.728 6.392 114.392 6.624 114.888 7.088C115.384 7.536 115.632 8.112 115.632 8.816C115.632 9.488 115.376 10.048 114.864 10.496C114.368 10.944 113.712 11.168 112.896 11.168C112.064 11.168 111.392 10.944 110.88 10.496C110.368 10.048 110.112 9.488 110.112 8.816ZM115.224 12.536V26H110.496V12.536H115.224ZM122.824 12.368C123.768 12.368 124.584 12.576 125.272 12.992C125.976 13.392 126.496 13.952 126.832 14.672V12.536H131.536V26H126.832V23.864C126.496 24.584 125.976 25.152 125.272 25.568C124.584 25.968 123.768 26.168 122.824 26.168C121.752 26.168 120.784 25.896 119.92 25.352C119.056 24.792 118.376 23.992 117.88 22.952C117.384 21.896 117.136 20.664 117.136 19.256C117.136 17.848 117.384 16.624 117.88 15.584C118.376 14.544 119.056 13.752 119.92 13.208C120.784 12.648 121.752 12.368 122.824 12.368ZM124.384 16.496C123.648 16.496 123.048 16.744 122.584 17.24C122.136 17.72 121.912 18.392 121.912 19.256C121.912 20.136 122.136 20.824 122.584 21.32C123.048 21.8 123.648 22.04 124.384 22.04C125.088 22.04 125.672 21.792 126.136 21.296C126.6 20.8 126.832 20.12 126.832 19.256C126.832 18.408 126.6 17.736 126.136 17.24C125.672 16.744 125.088 16.496 124.384 16.496Z" fill="#1A143C"/>
<defs>
<clipPath id="clip0_17_2884">
<rect width="35.122" height="36" fill="white"/>
</clipPath>
</defs>
</svg>
