<svg width="27" height="20" viewBox="0 0 27 20" fill="none" xmlns="http://www.w3.org/2000/svg">
<g clip-path="url(#clip0_45_1099)">
<path d="M0 0H26.6667V20H0V0Z" fill="#012169"/>
<path d="M3.125 0L13.2917 7.54167L23.4167 0H26.6667V2.58333L16.6667 10.0417L26.6667 17.4583V20H23.3333L13.3333 12.5417L3.375 20H0V17.5L9.95833 10.0833L0 2.66667V0H3.125Z" fill="white"/>
<path d="M17.6667 11.7083L26.6667 18.3333V20L15.375 11.7083H17.6667ZM10 12.5417L10.25 14L2.25 20H0L10 12.5417ZM26.6667 0V0.125L16.2917 7.95833L16.375 6.125L24.5833 0H26.6667ZM0 0L9.95833 7.33333H7.45833L0 1.75V0Z" fill="#C8102E"/>
<path d="M10.0417 0V20H16.7083V0H10.0417ZM0 6.66667V13.3333H26.6667V6.66667H0Z" fill="white"/>
<path d="M0 8.04167V12.0417H26.6667V8.04167H0ZM11.375 0V20H15.375V0H11.375Z" fill="#C8102E"/>
</g>
<defs>
<clipPath id="clip0_45_1099">
<rect width="26.6667" height="20" fill="white"/>
</clipPath>
</defs>
</svg>
