<svg width="36" height="36" viewBox="0 0 36 36" fill="none" xmlns="http://www.w3.org/2000/svg">
<path fill-rule="evenodd" clip-rule="evenodd" d="M12.0421 0.453171C10.0609 0.453171 8.16085 1.2402 6.75993 2.64112L0 9.401V12.4952C0 14.6813 0.93902 16.6481 2.43572 18.0141C0.93902 19.3802 0 21.3469 0 23.533V26.6273L6.75993 33.3872C8.16085 34.7881 10.0609 35.5751 12.0421 35.5751C14.2282 35.5751 16.1949 34.6361 17.561 33.1394C18.927 34.6361 20.8938 35.5751 23.0799 35.5751C25.0611 35.5751 26.9611 34.7881 28.362 33.3872L35.122 26.6273V23.533C35.122 21.3469 34.183 19.3802 32.6862 18.0141C34.183 16.6481 35.122 14.6813 35.122 12.4952V9.401L28.362 2.64112C26.9611 1.2402 25.0611 0.453171 23.0799 0.453171C20.8938 0.453171 18.927 1.39219 17.561 2.88888C16.1949 1.39219 14.2282 0.453171 12.0421 0.453171ZM22.6175 18.0141C22.5333 17.9373 22.4507 17.8584 22.3697 17.7774L17.561 12.9687L12.7523 17.7774C12.6713 17.8584 12.5887 17.9373 12.5045 18.0141C12.5887 18.091 12.6713 18.1699 12.7523 18.2509L17.561 23.0596L22.3697 18.2509C22.4507 18.1699 22.5333 18.091 22.6175 18.0141ZM19.5122 26.6273V28.105C19.5122 30.0754 21.1095 31.6727 23.0799 31.6727C24.026 31.6727 24.9335 31.2968 25.6026 30.6277L31.2196 25.0108V23.533C31.2196 21.5627 29.6222 19.9653 27.6519 19.9653C26.7057 19.9653 25.7982 20.3412 25.1291 21.0103L19.5122 26.6273ZM15.6098 26.6273L9.99281 21.0103C9.32374 20.3412 8.41631 19.9653 7.47011 19.9653C5.49974 19.9653 3.90244 21.5627 3.90244 23.533V25.0108L9.51937 30.6277C10.1884 31.2968 11.0959 31.6727 12.0421 31.6727C14.0124 31.6727 15.6098 30.0754 15.6098 28.105V26.6273ZM15.6098 7.92327V9.401L9.99281 15.018C9.32374 15.687 8.41631 16.0629 7.47011 16.0629C5.49974 16.0629 3.90244 14.4656 3.90244 12.4952V11.0175L9.51937 5.40055C10.1884 4.73149 11.0959 4.35561 12.0421 4.35561C14.0124 4.35561 15.6098 5.95291 15.6098 7.92327ZM25.1291 15.018L19.5122 9.401V7.92327C19.5122 5.95291 21.1095 4.35561 23.0799 4.35561C24.026 4.35561 24.9335 4.73149 25.6026 5.40055L31.2196 11.0175V12.4952C31.2196 14.4656 29.6222 16.0629 27.6519 16.0629C26.7057 16.0629 25.7982 15.687 25.1291 15.018Z" fill="#FF9357"/>
</svg>
